# xmcd CD database file
#
# Track frame offsets:
#	150
#	35670
#	95605
#	139120
#	182497
#	203672
#	239210
#	253335
#	278350
#	299532
#
# Disc length: 4401 seconds
#
# Revision: 0
# Processed by: cddbd v1.5.2PL0 Copyright (c) Steve Scherf et al.
# Submitted via: CDex 1.51
#
DISCID=9a112f0a
DTITLE=Arthur Blythe - Lenox Avenue Breakdown and In The Tradition
DYEAR=1980
DGENRE=Jazz
TTITLE0=Down San Diego Way
TTITLE1=Lenox Avenue Breakdown
TTITLE2=Slidin' Through
TTITLE3=Odessa
TTITLE4=Jitterburg Waltz
TTITLE5=In A Sentimental Mood
TTITLE6=Break Tune
TTITLE7=Caravan
TTITLE8=Hip Dripper
TTITLE9=Naima
EXTD=YEAR: 1980
EXTT0=
EXTT1=
EXTT2=
EXTT3=
EXTT4=
EXTT5=
EXTT6=
EXTT7=
EXTT8=
EXTT9=
PLAYORDER=
